<svg width="34" height="16" viewBox="0 0 34 16" fill="none" xmlns="http://www.w3.org/2000/svg">
<g clip-path="url(#clip0_2206_165)">
<path d="M19.7094 11.477C19.7371 11.5384 19.6907 11.6076 19.6207 11.6076H17.624C17.5858 11.6076 17.5508 11.5856 17.5353 11.5517L16.4914 9.23904C16.4759 9.20521 16.4417 9.18317 16.4027 9.18317H16.0829C16.03 9.18317 15.9861 9.22488 15.9861 9.27603V11.4904C15.9861 11.5423 15.943 11.584 15.8901 11.584H14.0512C13.9975 11.584 13.9543 11.5423 13.9543 11.4904V3.96053C13.9543 3.90938 13.9975 3.86768 14.0512 3.86768H16.5133C17.9364 3.86768 18.4873 4.08329 18.9145 4.43267C19.4995 4.91189 19.8356 5.66023 19.8356 6.48411C19.8356 7.30799 19.5036 8.09883 19.0097 8.51431C18.8616 8.63785 18.7298 8.73149 18.5955 8.81018C18.554 8.83458 18.5377 8.88415 18.5565 8.92743L19.707 11.4778L19.7094 11.477ZM17.8893 6.5148C17.8893 6.13788 17.7338 5.88922 17.4149 5.75544C17.1472 5.6437 16.8233 5.6437 16.6085 5.6437H16.0837C16.03 5.6437 15.9869 5.68541 15.9869 5.73656V7.3135C15.9869 7.36465 16.03 7.40714 16.0837 7.40714H16.6818C16.8673 7.40714 17.1781 7.40714 17.4352 7.2954C17.8095 7.13252 17.8884 6.78077 17.8884 6.5148H17.8893Z" fill="#5B6677"/>
<path d="M32.1318 7.77793C32.1187 7.75197 32.1187 7.72206 32.1318 7.6961L33.9902 4.00869C34.0211 3.94653 33.9747 3.87492 33.9031 3.87492H31.8551C31.8185 3.87492 31.7851 3.89538 31.7689 3.92685L30.5362 6.3623C30.5012 6.43155 30.3978 6.43155 30.3628 6.3623L29.1301 3.92685C29.1139 3.89538 29.0805 3.87492 29.0431 3.87492H26.9951C26.9235 3.87492 26.8771 3.94731 26.908 4.00869L28.7664 7.6961C28.7794 7.72206 28.7794 7.75197 28.7664 7.77793L27.7379 9.81915H26.5158C26.4629 9.81915 26.419 9.77744 26.419 9.72629V3.9662C26.419 3.91426 26.3759 3.87256 26.323 3.87256H24.4841C24.4841 3.87256 24.4784 3.87413 24.4751 3.87413H20.2831C20.2278 3.87413 20.1838 3.91741 20.1838 3.97013V11.5133C20.1838 11.5668 20.2286 11.6101 20.2839 11.6101H22.1204C22.1757 11.6101 22.2205 11.5668 22.2205 11.5133V8.68365C22.2205 8.63014 22.2652 8.58608 22.3213 8.58608H24.0105C24.0659 8.58608 24.1106 8.5428 24.1106 8.49008L24.1244 6.90762C24.1244 6.85333 24.0797 6.80926 24.0235 6.80926H22.3213C22.266 6.80926 22.2213 6.76598 22.2213 6.71247V5.75167C22.2213 5.69816 22.2668 5.6541 22.3222 5.6541H24.3889V11.5031C24.3889 11.555 24.432 11.5968 24.4857 11.5968H26.9877C26.9877 11.5968 26.9934 11.5991 26.9967 11.5991H29.0447C29.0813 11.5991 29.1155 11.5787 29.1318 11.5472L30.3645 9.11173C30.3995 9.04248 30.5028 9.04248 30.5378 9.11173L31.7705 11.5472C31.7868 11.5794 31.8201 11.5991 31.8567 11.5991H33.9048C33.9764 11.5991 34.0227 11.5267 33.9918 11.4646L32.1334 7.77715L32.1318 7.77793Z" fill="#5B6677"/>
<path d="M12.8731 4.88967V10.7041C12.8731 11.129 12.6387 11.5216 12.2587 11.7341L7.05126 14.6417C6.67128 14.8542 6.20179 14.8542 5.82181 14.6417L0.614321 11.7341C0.234337 11.5216 0 11.129 0 10.7041V4.88967C0 4.46474 0.234337 4.07208 0.614321 3.85962L6.42474 0.615234L3.64931 6.09677C3.51017 6.37139 3.66558 6.69874 3.97152 6.77665L5.48251 7.15829C5.80553 7.24013 5.98129 7.57692 5.85761 7.87752L3.9821 12.4132C3.91538 12.5729 4.12612 12.7036 4.24817 12.5808L10.5745 6.22582C10.8511 5.94883 10.6965 5.48613 10.3068 5.41531L8.82669 5.15013C8.57689 5.10528 8.45403 4.8275 8.59317 4.62133L8.93491 4.11614L9.97071 2.58327L11.2319 0.718318L10.5232 2.52582C10.4557 2.69894 10.5273 2.89409 10.6932 2.98616L12.2587 3.85962C12.6387 4.07208 12.8731 4.46474 12.8731 4.88967Z" fill="#5B6677"/>
</g>
<defs>
<clipPath id="clip0_2206_165">
<rect width="34" height="16" fill="#5B6677"/>
</clipPath>
</defs>
</svg>
